<svg width="10" height="15" viewBox="0 0 10 15" fill="none" xmlns="http://www.w3.org/2000/svg">
<path d="M5 1.25C5.49445 1.25 5.9778 1.39662 6.38893 1.67133C6.80005 1.94603 7.12048 2.33648 7.3097 2.79329C7.49892 3.25011 7.54843 3.75277 7.45196 4.23773C7.3555 4.72268 7.1174 5.16814 6.76777 5.51777C6.41814 5.8674 5.97268 6.1055 5.48773 6.20196C5.00277 6.29843 4.50011 6.24892 4.04329 6.0597C3.58648 5.87048 3.19603 5.55005 2.92133 5.13893C2.64662 4.7278 2.5 4.24445 2.5 3.75C2.5 3.08696 2.76339 2.45107 3.23223 1.98223C3.70107 1.51339 4.33696 1.25 5 1.25ZM5 0.25C4.30777 0.25 3.63108 0.455271 3.0555 0.839856C2.47993 1.22444 2.03133 1.77107 1.76642 2.41061C1.50152 3.05015 1.4322 3.75388 1.56725 4.43282C1.7023 5.11175 2.03564 5.73539 2.52513 6.22487C3.01461 6.71436 3.63825 7.0477 4.31718 7.18275C4.99612 7.3178 5.69985 7.24849 6.33939 6.98358C6.97893 6.71867 7.52556 6.27007 7.91014 5.6945C8.29473 5.11892 8.5 4.44223 8.5 3.75C8.5 2.82174 8.13125 1.9315 7.47487 1.27513C6.8185 0.618749 5.92826 0.25 5 0.25ZM10 14.25H9V11.75C9 11.4217 8.93534 11.0966 8.8097 10.7933C8.68406 10.49 8.49991 10.2144 8.26777 9.98223C8.03562 9.75009 7.76002 9.56594 7.45671 9.4403C7.15339 9.31466 6.8283 9.25 6.5 9.25H3.5C2.83696 9.25 2.20107 9.51339 1.73223 9.98223C1.26339 10.4511 1 11.087 1 11.75V14.25H0V11.75C0 10.8217 0.368749 9.9315 1.02513 9.27513C1.6815 8.61875 2.57174 8.25 3.5 8.25H6.5C7.42826 8.25 8.3185 8.61875 8.97487 9.27513C9.63125 9.9315 10 10.8217 10 11.75V14.25Z" fill="#FF5B37"/>
</svg>
