<svg width="16" height="16" viewBox="0 0 16 16" fill="none" xmlns="http://www.w3.org/2000/svg">
<path d="M2.76254 4.87061C2.76254 4.53908 2.89424 4.22114 3.12866 3.98672C3.36308 3.7523 3.68102 3.62061 4.01254 3.62061H11.5125C11.8441 3.62061 12.162 3.7523 12.3964 3.98672C12.6308 4.22114 12.7625 4.53908 12.7625 4.87061V6.74561C12.7625 7.07713 12.6308 7.39507 12.3964 7.62949C12.162 7.86391 11.8441 7.99561 11.5125 7.99561H4.01254C3.68102 7.99561 3.36308 7.86391 3.12866 7.62949C2.89424 7.39507 2.76254 7.07713 2.76254 6.74561V4.87061ZM11.5125 4.87061H4.01254V6.74561H11.5125V4.87061ZM9.63754 9.24561C9.30602 9.24561 8.98808 9.3773 8.75366 9.61172C8.51924 9.84614 8.38754 10.1641 8.38754 10.4956V11.7456C8.38754 12.0771 8.51924 12.3951 8.75366 12.6295C8.98808 12.8639 9.30602 12.9956 9.63754 12.9956H11.5125C11.8441 12.9956 12.162 12.8639 12.3964 12.6295C12.6308 12.3951 12.7625 12.0771 12.7625 11.7456V10.4956C12.7625 10.1641 12.6308 9.84614 12.3964 9.61172C12.162 9.3773 11.8441 9.24561 11.5125 9.24561H9.63754ZM9.63754 10.4956H11.5125V11.7456H9.63754V10.4956ZM2.76254 9.87061C2.76254 9.70485 2.82839 9.54587 2.9456 9.42866C3.06281 9.31145 3.22178 9.24561 3.38754 9.24561H6.51254C6.6783 9.24561 6.83727 9.31145 6.95448 9.42866C7.07169 9.54587 7.13754 9.70485 7.13754 9.87061C7.13754 10.0364 7.07169 10.1953 6.95448 10.3125C6.83727 10.4298 6.6783 10.4956 6.51254 10.4956H3.38754C3.22178 10.4956 3.06281 10.4298 2.9456 10.3125C2.82839 10.1953 2.76254 10.0364 2.76254 9.87061ZM3.38754 11.7456C3.22178 11.7456 3.06281 11.8115 2.9456 11.9287C2.82839 12.0459 2.76254 12.2048 2.76254 12.3706C2.76254 12.5364 2.82839 12.6953 2.9456 12.8125C3.06281 12.9298 3.22178 12.9956 3.38754 12.9956H6.51254C6.6783 12.9956 6.83727 12.9298 6.95448 12.8125C7.07169 12.6953 7.13754 12.5364 7.13754 12.3706C7.13754 12.2048 7.07169 12.0459 6.95448 11.9287C6.83727 11.8115 6.6783 11.7456 6.51254 11.7456H3.38754ZM3.38379 0.495605C2.55499 0.495605 1.76013 0.824846 1.17408 1.4109C0.588029 1.99695 0.258789 2.7918 0.258789 3.62061V12.3706C0.258789 13.1994 0.588029 13.9943 1.17408 14.5803C1.76013 15.1664 2.55499 15.4956 3.38379 15.4956H12.1338C12.9626 15.4956 13.7574 15.1664 14.3435 14.5803C14.9296 13.9943 15.2588 13.1994 15.2588 12.3706V3.62061C15.2588 2.7918 14.9296 1.99695 14.3435 1.4109C13.7574 0.824846 12.9626 0.495605 12.1338 0.495605H3.38379ZM1.50879 3.62061C1.50879 3.12332 1.70633 2.64641 2.05796 2.29478C2.40959 1.94315 2.88651 1.74561 3.38379 1.74561H12.1338C12.6311 1.74561 13.108 1.94315 13.4596 2.29478C13.8112 2.64641 14.0088 3.12332 14.0088 3.62061V12.3706C14.0088 12.8679 13.8112 13.3448 13.4596 13.6964C13.108 14.0481 12.6311 14.2456 12.1338 14.2456H3.38379C2.88651 14.2456 2.40959 14.0481 2.05796 13.6964C1.70633 13.3448 1.50879 12.8679 1.50879 12.3706V3.62061Z" fill="#1B2559"/>
</svg>
