<svg width="16" height="16" viewBox="0 0 16 16" fill="none" xmlns="http://www.w3.org/2000/svg">
<path d="M4.5 11.75C5.4665 11.75 6.25 10.9665 6.25 10C6.25 9.0335 5.4665 8.25 4.5 8.25C3.5335 8.25 2.75 9.0335 2.75 10C2.75 10.9665 3.5335 11.75 4.5 11.75Z" stroke="#7E84A3" stroke-linecap="round" stroke-linejoin="round"/>
<path d="M11.5 11.75C12.4665 11.75 13.25 10.9665 13.25 10C13.25 9.0335 12.4665 8.25 11.5 8.25C10.5335 8.25 9.75 9.0335 9.75 10C9.75 10.9665 10.5335 11.75 11.5 11.75Z" stroke="#7E84A3" stroke-linecap="round" stroke-linejoin="round"/>
<path d="M8 4.75C8.9665 4.75 9.75 3.9665 9.75 3C9.75 2.0335 8.9665 1.25 8 1.25C7.0335 1.25 6.25 2.0335 6.25 3C6.25 3.9665 7.0335 4.75 8 4.75Z" stroke="#7E84A3" stroke-linecap="round" stroke-linejoin="round"/>
<path d="M11.5 8.25C11.5 6.31695 9.93305 4.75 8 4.75C6.06695 4.75 4.5 6.31695 4.5 8.25M8 15.25C8 13.3169 6.43305 11.75 4.5 11.75C2.56695 11.75 1 13.3169 1 15.25H8ZM15 15.25C15 13.3169 13.433 11.75 11.5 11.75C9.56695 11.75 8 13.3169 8 15.25H15Z" stroke="#7E84A3" stroke-linecap="round" stroke-linejoin="round"/>
</svg>
