<svg width="15" height="16" viewBox="0 0 15 16" fill="none" xmlns="http://www.w3.org/2000/svg">
<path d="M5.77576 0.430908C4.84783 0.431959 3.9582 0.801045 3.30205 1.45719C2.6459 2.11334 2.27681 3.00297 2.27576 3.93091V6.42091C2.27608 6.83916 2.38101 7.2507 2.58101 7.61803L3.43898 9.19097L1.16326 10.6702C0.813517 10.8966 0.526137 11.2071 0.327416 11.5733C0.128696 11.9395 0.0249808 12.3496 0.0257612 12.7663V15.4309H8.77576V14.4309H1.02576V12.7663C1.0253 12.5163 1.08753 12.2702 1.20676 12.0505C1.32599 11.8308 1.49842 11.6445 1.70826 11.5086L4.76014 9.52488L3.45889 7.13922C3.3389 6.9188 3.27594 6.67187 3.27576 6.42091V3.93091C3.27576 3.26787 3.53915 2.63198 4.008 2.16314C4.47684 1.6943 5.11272 1.43091 5.77576 1.43091C6.4388 1.43091 7.07469 1.6943 7.54353 2.16314C8.01237 2.63198 8.27576 3.26787 8.27576 3.93091V6.42091C8.27557 6.67186 8.21261 6.91879 8.09261 7.13919L6.79139 9.52488L8.77576 10.8148V9.62206L8.11255 9.19081L8.97048 7.61788C9.17048 7.25059 9.27543 6.83911 9.27576 6.42091V3.93091C9.27471 3.00297 8.90563 2.11334 8.24948 1.45719C7.59333 0.801045 6.7037 0.431959 5.77576 0.430908ZM14.1293 11.0345L13.4222 10.3273L11.9008 11.8488L10.3793 10.3273L9.6722 11.0345L11.1936 12.5559L9.6722 14.0773L10.3793 14.7845L11.9008 13.263L13.4222 14.7845L14.1293 14.0773L12.6079 12.5559L14.1293 11.0345Z" fill="#1B2559"/>
</svg>
