<svg width="17" height="15" viewBox="0 0 17 15" fill="none" xmlns="http://www.w3.org/2000/svg">
<path d="M14.1924 0.280518H7.1091C6.54552 0.280518 6.00501 0.504401 5.6065 0.902916C5.20798 1.30143 4.9841 1.84193 4.9841 2.40552V7.36385C4.9841 7.92744 5.20798 8.46794 5.6065 8.86645C6.00501 9.26497 6.54552 9.48885 7.1091 9.48885H14.1924C14.756 9.48885 15.2965 9.26497 15.695 8.86645C16.0936 8.46794 16.3174 7.92744 16.3174 7.36385V2.40552C16.3174 1.84193 16.0936 1.30143 15.695 0.902916C15.2965 0.504401 14.756 0.280518 14.1924 0.280518ZM14.9008 7.36385C14.9008 7.55171 14.8261 7.73188 14.6933 7.86472C14.5605 7.99756 14.3803 8.07218 14.1924 8.07218H7.1091C6.92124 8.07218 6.74107 7.99756 6.60823 7.86472C6.47539 7.73188 6.40077 7.55171 6.40077 7.36385V2.40552C6.40077 2.21766 6.47539 2.03749 6.60823 1.90465C6.74107 1.77181 6.92124 1.69718 7.1091 1.69718H14.1924C14.3803 1.69718 14.5605 1.77181 14.6933 1.90465C14.8261 2.03749 14.9008 2.21766 14.9008 2.40552V7.36385ZM12.4216 4.53052C12.1594 4.53141 11.9069 4.62988 11.7133 4.80677C11.561 4.66832 11.3717 4.5771 11.1685 4.54419C10.9653 4.51128 10.757 4.53809 10.5687 4.62137C10.3805 4.70464 10.2205 4.8408 10.1082 5.0133C9.99591 5.18579 9.93612 5.38719 9.93612 5.59302C9.93612 5.79885 9.99591 6.00025 10.1082 6.17274C10.2205 6.34523 10.3805 6.48139 10.5687 6.56467C10.757 6.64795 10.9653 6.67476 11.1685 6.64185C11.3717 6.60893 11.561 6.51771 11.7133 6.37927C11.8412 6.49553 11.9955 6.57882 12.1629 6.62193C12.3303 6.66504 12.5057 6.66665 12.6738 6.62664C12.842 6.58663 12.9979 6.50619 13.1279 6.39231C13.2579 6.27844 13.3582 6.13455 13.4201 5.97314C13.4819 5.81173 13.5034 5.63767 13.4828 5.46606C13.4621 5.29444 13.3999 5.13046 13.3015 4.98833C13.2032 4.8462 13.0716 4.73021 12.9183 4.65044C12.7649 4.57066 12.5944 4.52949 12.4216 4.53052ZM11.3591 10.9055C11.1712 10.9055 10.9911 10.9801 10.8582 11.113C10.7254 11.2458 10.6508 11.426 10.6508 11.6139V12.3222C10.6508 12.51 10.5761 12.6902 10.4433 12.8231C10.3105 12.9559 10.1303 13.0305 9.94243 13.0305H2.8591C2.67124 13.0305 2.49107 12.9559 2.35823 12.8231C2.22539 12.6902 2.15077 12.51 2.15077 12.3222V9.48885H2.8591C3.04696 9.48885 3.22713 9.41422 3.35997 9.28139C3.49281 9.14855 3.56743 8.96838 3.56743 8.78052C3.56743 8.59266 3.49281 8.41249 3.35997 8.27965C3.22713 8.14681 3.04696 8.07218 2.8591 8.07218H2.15077V7.36385C2.15077 7.17599 2.22539 6.99582 2.35823 6.86298C2.49107 6.73015 2.67124 6.65552 2.8591 6.65552C3.04696 6.65552 3.22713 6.58089 3.35997 6.44805C3.49281 6.31521 3.56743 6.13505 3.56743 5.94718C3.56743 5.75932 3.49281 5.57916 3.35997 5.44632C3.22713 5.31348 3.04696 5.23885 2.8591 5.23885C2.29552 5.23885 1.75501 5.46273 1.3565 5.86125C0.957984 6.25976 0.7341 6.80027 0.7341 7.36385V12.3222C0.7341 12.8858 0.957984 13.4263 1.3565 13.8248C1.75501 14.2233 2.29552 14.4472 2.8591 14.4472H9.94243C10.506 14.4472 11.0465 14.2233 11.445 13.8248C11.8436 13.4263 12.0674 12.8858 12.0674 12.3222V11.6139C12.0674 11.426 11.9928 11.2458 11.86 11.113C11.7271 10.9801 11.547 10.9055 11.3591 10.9055ZM4.27577 11.6139H4.9841C5.17196 11.6139 5.35213 11.5392 5.48497 11.4064C5.61781 11.2735 5.69243 11.0934 5.69243 10.9055C5.69243 10.7177 5.61781 10.5375 5.48497 10.4047C5.35213 10.2718 5.17196 10.1972 4.9841 10.1972H4.27577C4.08791 10.1972 3.90774 10.2718 3.7749 10.4047C3.64206 10.5375 3.56743 10.7177 3.56743 10.9055C3.56743 11.0934 3.64206 11.2735 3.7749 11.4064C3.90774 11.5392 4.08791 11.6139 4.27577 11.6139Z" fill="#1B2559"/>
</svg>
