<svg width="20" height="18" viewBox="0 0 20 18" fill="none" xmlns="http://www.w3.org/2000/svg">
<path d="M14.5838 6.01675L14.5841 6.01675C14.7712 6.01564 14.9557 6.06019 15.1217 6.14654C15.2876 6.23289 15.43 6.35842 15.5365 6.51226C15.643 6.66609 15.7103 6.84358 15.7327 7.02933C15.755 7.21508 15.7317 7.40347 15.6648 7.57817C15.5978 7.75288 15.4893 7.90861 15.3485 8.03187C15.2078 8.15512 15.0391 8.24218 14.8571 8.28549C14.6751 8.3288 14.4853 8.32705 14.3041 8.28039C14.1229 8.23373 13.9559 8.14358 13.8174 8.01775L13.7502 7.95661L13.6829 8.01775C13.518 8.16759 13.3132 8.26633 13.0933 8.30195C12.8734 8.33757 12.6479 8.30856 12.4441 8.21842C12.2404 8.12828 12.0672 7.98091 11.9457 7.79421C11.8241 7.60751 11.7594 7.38953 11.7594 7.16675C11.7594 6.94397 11.8241 6.72598 11.9457 6.53928C12.0672 6.35259 12.2404 6.20521 12.4441 6.11508C12.6479 6.02494 12.8734 5.99592 13.0933 6.03155C13.3132 6.06717 13.518 6.1659 13.6829 6.31575L13.7503 6.37704L13.8176 6.31557C14.027 6.12424 14.3002 6.01771 14.5838 6.01675ZM2.50016 11.6501H2.40016V11.7501V15.0834C2.40016 15.331 2.4985 15.5683 2.67353 15.7434C2.84856 15.9184 3.08596 16.0167 3.3335 16.0167H11.6668C11.9144 16.0167 12.1518 15.9184 12.3268 15.7434C12.5018 15.5683 12.6002 15.331 12.6002 15.0834V14.2501C12.6002 14.0556 12.6774 13.8691 12.815 13.7315C12.9525 13.594 13.139 13.5167 13.3335 13.5167C13.528 13.5167 13.7145 13.594 13.852 13.7315C13.9896 13.8691 14.0668 14.0556 14.0668 14.2501V15.0834C14.0668 15.7199 13.814 16.3304 13.3639 16.7805C12.9138 17.2306 12.3033 17.4834 11.6668 17.4834H3.3335C2.69698 17.4834 2.08653 17.2306 1.63644 16.7805C1.18635 16.3304 0.933496 15.7199 0.933496 15.0834V9.25008C0.933496 8.61356 1.18635 8.00311 1.63644 7.55303C2.08653 7.10294 2.69698 6.85008 3.3335 6.85008C3.52799 6.85008 3.71451 6.92734 3.85204 7.06487C3.98957 7.2024 4.06683 7.38892 4.06683 7.58342C4.06683 7.77791 3.98957 7.96443 3.85204 8.10196C3.71451 8.23949 3.52799 8.31675 3.3335 8.31675C3.08596 8.31675 2.84856 8.41508 2.67353 8.59012C2.4985 8.76515 2.40016 9.00255 2.40016 9.25008V10.0834V10.1834H2.50016H3.3335C3.52799 10.1834 3.71451 10.2607 3.85204 10.3982C3.98957 10.5357 4.06683 10.7223 4.06683 10.9167C4.06683 11.1112 3.98957 11.2978 3.85204 11.4353C3.71451 11.5728 3.52799 11.6501 3.3335 11.6501H2.50016ZM8.3335 1.01675H16.6668C17.3033 1.01675 17.9138 1.2696 18.3639 1.71969C18.814 2.16978 19.0668 2.78023 19.0668 3.41675V9.25008C19.0668 9.8866 18.814 10.4971 18.3639 10.9471C17.9138 11.3972 17.3033 11.6501 16.6668 11.6501H8.3335C7.69698 11.6501 7.08653 11.3972 6.63644 10.9471C6.18635 10.4971 5.9335 9.8866 5.9335 9.25008V3.41675C5.9335 2.78023 6.18635 2.16978 6.63644 1.71969C7.08653 1.2696 7.69698 1.01675 8.3335 1.01675ZM17.3268 9.91005C17.5018 9.73501 17.6002 9.49762 17.6002 9.25008V3.41675C17.6002 3.16921 17.5018 2.93182 17.3268 2.75678C17.1518 2.58175 16.9144 2.48341 16.6668 2.48341H8.3335C8.08596 2.48341 7.84856 2.58175 7.67353 2.75678C7.4985 2.93182 7.40016 3.16921 7.40016 3.41675V9.25008C7.40016 9.49762 7.4985 9.73501 7.67353 9.91005C7.84856 10.0851 8.08596 10.1834 8.3335 10.1834H16.6668C16.9144 10.1834 17.1518 10.0851 17.3268 9.91005ZM5.8335 14.1501H5.00016C4.80567 14.1501 4.61914 14.0728 4.48162 13.9353C4.34409 13.7978 4.26683 13.6112 4.26683 13.4167C4.26683 13.2223 4.34409 13.0357 4.48162 12.8982C4.61914 12.7607 4.80567 12.6834 5.00016 12.6834H5.8335C6.02799 12.6834 6.21451 12.7607 6.35204 12.8982C6.48957 13.0357 6.56683 13.2223 6.56683 13.4167C6.56683 13.6112 6.48957 13.7978 6.35204 13.9353C6.21451 14.0728 6.02799 14.1501 5.8335 14.1501Z" fill="#FF5B37" stroke="white" stroke-width="0.2"/>
</svg>
