<svg width="20" height="18" viewBox="0 0 20 18" fill="none" xmlns="http://www.w3.org/2000/svg">
<path d="M14.5833 6.01675L14.5836 6.01675C14.7707 6.01564 14.9552 6.06019 15.1212 6.14654C15.2871 6.23289 15.4295 6.35842 15.536 6.51226C15.6425 6.66609 15.7098 6.84358 15.7322 7.02933C15.7545 7.21508 15.7312 7.40347 15.6643 7.57817C15.5973 7.75288 15.4888 7.90861 15.3481 8.03187C15.2073 8.15512 15.0386 8.24218 14.8566 8.28549C14.6746 8.3288 14.4848 8.32705 14.3036 8.28039C14.1224 8.23373 13.9554 8.14358 13.8169 8.01775L13.7497 7.95661L13.6824 8.01775C13.5176 8.16759 13.3127 8.26633 13.0928 8.30195C12.8729 8.33757 12.6474 8.30856 12.4436 8.21842C12.2399 8.12828 12.0667 7.98091 11.9452 7.79421C11.8236 7.60751 11.7589 7.38953 11.7589 7.16675C11.7589 6.94397 11.8236 6.72598 11.9452 6.53928C12.0667 6.35259 12.2399 6.20521 12.4436 6.11508C12.6474 6.02494 12.8729 5.99592 13.0928 6.03155C13.3127 6.06717 13.5176 6.1659 13.6824 6.31575L13.7498 6.37704L13.8171 6.31557C14.0265 6.12424 14.2997 6.01771 14.5833 6.01675ZM2.49967 11.6501H2.39967V11.7501V15.0834C2.39967 15.331 2.49801 15.5683 2.67304 15.7434C2.84808 15.9184 3.08547 16.0167 3.33301 16.0167H11.6663C11.9139 16.0167 12.1513 15.9184 12.3263 15.7434C12.5013 15.5683 12.5997 15.331 12.5997 15.0834V14.2501C12.5997 14.0556 12.6769 13.8691 12.8145 13.7315C12.952 13.594 13.1385 13.5167 13.333 13.5167C13.5275 13.5167 13.714 13.594 13.8516 13.7315C13.9891 13.8691 14.0663 14.0556 14.0663 14.2501V15.0834C14.0663 15.7199 13.8135 16.3304 13.3634 16.7805C12.9133 17.2306 12.3029 17.4834 11.6663 17.4834H3.33301C2.69649 17.4834 2.08604 17.2306 1.63595 16.7805C1.18586 16.3304 0.933008 15.7199 0.933008 15.0834V9.25008C0.933008 8.61356 1.18586 8.00311 1.63595 7.55303C2.08604 7.10294 2.69649 6.85008 3.33301 6.85008C3.5275 6.85008 3.71403 6.92734 3.85155 7.06487C3.98908 7.2024 4.06634 7.38892 4.06634 7.58342C4.06634 7.77791 3.98908 7.96443 3.85155 8.10196C3.71403 8.23949 3.5275 8.31675 3.33301 8.31675C3.08547 8.31675 2.84808 8.41508 2.67304 8.59012C2.49801 8.76515 2.39967 9.00255 2.39967 9.25008V10.0834V10.1834H2.49967H3.33301C3.5275 10.1834 3.71403 10.2607 3.85155 10.3982C3.98908 10.5357 4.06634 10.7223 4.06634 10.9167C4.06634 11.1112 3.98908 11.2978 3.85155 11.4353C3.71403 11.5728 3.5275 11.6501 3.33301 11.6501H2.49967ZM8.33301 1.01675H16.6663C17.3029 1.01675 17.9133 1.2696 18.3634 1.71969C18.8135 2.16978 19.0663 2.78023 19.0663 3.41675V9.25008C19.0663 9.8866 18.8135 10.4971 18.3634 10.9471C17.9133 11.3972 17.3029 11.6501 16.6663 11.6501H8.33301C7.69649 11.6501 7.08604 11.3972 6.63595 10.9471C6.18586 10.4971 5.93301 9.8866 5.93301 9.25008V3.41675C5.93301 2.78023 6.18586 2.16978 6.63595 1.71969C7.08604 1.2696 7.69649 1.01675 8.33301 1.01675ZM17.3263 9.91005C17.5013 9.73501 17.5997 9.49762 17.5997 9.25008V3.41675C17.5997 3.16921 17.5013 2.93182 17.3263 2.75678C17.1513 2.58175 16.9139 2.48341 16.6663 2.48341H8.33301C8.08547 2.48341 7.84807 2.58175 7.67304 2.75678C7.49801 2.93182 7.39967 3.16921 7.39967 3.41675V9.25008C7.39967 9.49762 7.49801 9.73501 7.67304 9.91005C7.84807 10.0851 8.08547 10.1834 8.33301 10.1834H16.6663C16.9139 10.1834 17.1513 10.0851 17.3263 9.91005ZM5.83301 14.1501H4.99967C4.80518 14.1501 4.61866 14.0728 4.48113 13.9353C4.3436 13.7978 4.26634 13.6112 4.26634 13.4167C4.26634 13.2223 4.3436 13.0357 4.48113 12.8982C4.61866 12.7607 4.80518 12.6834 4.99967 12.6834H5.83301C6.0275 12.6834 6.21403 12.7607 6.35155 12.8982C6.48908 13.0357 6.56634 13.2223 6.56634 13.4167C6.56634 13.6112 6.48908 13.7978 6.35155 13.9353C6.21403 14.0728 6.0275 14.1501 5.83301 14.1501Z" fill="#7E84A3" stroke="white" stroke-width="0.2"/>
</svg>
